# xmcd
#
# Track frame offsets: 
#        150
#        20908
#        74413
#        99184
#        110615
#        132606
#        151010
#        198260
#        211801
#        249340
#        255212
#        269248
#        319284
#
# Disc length: 4556 seconds
#
# Revision: 0
# Processed by: cddbd v1.5.2PL0 Copyright (c) Steve Scherf et al.
# Submitted via: ExactAudioCopy v0.99pb5
#
DISCID=ba11ca0d
DTITLE=Stevie Ray Vaughan And Double Trouble - Couldn't Stand The Weat
DTITLE=her (Legacy Edition) [CD2 - Live In Montreal)
DYEAR=2010
DGENRE=Blues
TTITLE0=Tesify
TTITLE1=Voodoo Child (Slight Return)
TTITLE2=The Things (That) I Used To Do 
TTITLE3=Honey Bee 
TTITLE4=Couldn't Stand The Weather 
TTITLE5=Cold Shot 
TTITLE6=Tin Pan Alley (aka Roughest Place In Town) 
TTITLE7=Love Struck Baby 
TTITLE8=Texas Flood 
TTITLE9=Band Intros-Encores 
TTITLE10=Stang's Swang 
TTITLE11=Lenny 
TTITLE12=Pride And Joy 
EXTD=
EXTT0=
EXTT1=
EXTT2=
EXTT3=
EXTT4=
EXTT5=
EXTT6=
EXTT7=
EXTT8=
EXTT9=
EXTT10=
EXTT11=
EXTT12=
PLAYORDER=
